<svg width="113" height="102" viewBox="0 0 113 102" fill="none" xmlns="http://www.w3.org/2000/svg">
<path d="M75.5 59C75.2239 59 75 59.2239 75 59.5C75 59.7761 75.2239 60 75.5 60V59ZM111.867 59.8536C112.063 59.6583 112.063 59.3417 111.867 59.1464L108.685 55.9645C108.49 55.7692 108.174 55.7692 107.978 55.9645C107.783 56.1597 107.783 56.4763 107.978 56.6716L110.807 59.5L107.978 62.3284C107.783 62.5237 107.783 62.8403 107.978 63.0355C108.174 63.2308 108.49 63.2308 108.685 63.0355L111.867 59.8536ZM98.5 56.5C98.5 56.7761 98.7239 57 99 57C99.2761 57 99.5 56.7761 99.5 56.5H98.5ZM99.5 62.5C99.5 62.2239 99.2761 62 99 62C98.7239 62 98.5 62.2239 98.5 62.5H99.5ZM4 7.5C3.72386 7.5 3.5 7.72386 3.5 8C3.5 8.27614 3.72386 8.5 4 8.5V7.5ZM30 8.5C30.2761 8.5 30.5 8.27614 30.5 8C30.5 7.72386 30.2761 7.5 30 7.5V8.5ZM80 7.5C79.7239 7.5 79.5 7.72386 79.5 8C79.5 8.27614 79.7239 8.5 80 8.5V7.5ZM86 8.5C86.2761 8.5 86.5 8.27614 86.5 8C86.5 7.72386 86.2761 7.5 86 7.5V8.5ZM89 7.5C88.7239 7.5 88.5 7.72386 88.5 8C88.5 8.27614 88.7239 8.5 89 8.5V7.5ZM95 8.5C95.2761 8.5 95.5 8.27614 95.5 8C95.5 7.72386 95.2761 7.5 95 7.5V8.5ZM75.5 60H111.514V59H75.5V60ZM94 100.5H6V101.5H94V100.5ZM1.5 96V15H0.5V96H1.5ZM98.5 15V56.5H99.5V15H98.5ZM98.5 62.5V96H99.5V62.5H98.5ZM6 100.5C3.51472 100.5 1.5 98.4853 1.5 96H0.5C0.5 99.0376 2.96243 101.5 6 101.5V100.5ZM94 101.5C97.0376 101.5 99.5 99.0376 99.5 96H98.5C98.5 98.4853 96.4853 100.5 94 100.5V101.5ZM6 1.5H94V0.5H6V1.5ZM1.5 15V6H0.5V15H1.5ZM98.5 6V15H99.5V6H98.5ZM94 1.5C96.4853 1.5 98.5 3.51472 98.5 6H99.5C99.5 2.96243 97.0376 0.5 94 0.5V1.5ZM6 0.5C2.96243 0.5 0.5 2.96243 0.5 6H1.5C1.5 3.51472 3.51472 1.5 6 1.5V0.5ZM4 8.5H30V7.5H4V8.5ZM80 8.5H86V7.5H80V8.5ZM89 8.5H95V7.5H89V8.5ZM1 15.5H99V14.5H1V15.5Z" fill="black"/>
</svg>
