<svg width="102" height="37" viewBox="0 0 102 37" fill="none" xmlns="http://www.w3.org/2000/svg">
<path d="M28.1241 0C28.1241 0 11.4505 2.81241 0 1.80798C4.01773 9.44166 4.01773 32.9454 0.401773 36.5613C6.83013 35.1551 8.23634 35.1551 13.2585 35.9586C8.03545 28.7267 9.03988 25.3117 8.23634 18.8833C14.2629 18.8833 16.6736 23.1019 16.6736 23.1019L18.6824 11.6514C18.6824 11.6514 15.0665 16.4727 8.839 16.0709C8.23634 6.83013 15.87 -4.21861 24.709 14.8656C25.1108 10.8479 28.1241 0 28.1241 0Z" fill="#283618"/>
<path d="M74.6444 1.87589C65.6841 2.13303 52 1.87589 52 1.87589C52 1.87589 54.5661 3.36101 55.6928 6.28433C57.1553 10.0792 54.1905 11.7201 54.2693 17.8135C51.4985 13.1924 51.5 8.78064 51.5 8.78064C51.5 8.78064 51 12.7806 52 15.6691C49.5579 12.9906 48.1616 9.72888 48.5239 6.75701C48.8955 3.70846 50.4146 1.79393 50.4146 1.79393L33.9498 1.00443C33.9498 1.00443 43.399 9.33888 47.5057 19.2851C47.8655 24.3338 48.0658 25.4035 47.5057 30.6218C46.199 33.0571 43.7723 35.2972 43.7723 35.2972C43.7723 35.2972 53.8526 33.0657 60.1995 35.4838C57.9594 33.4304 57.5861 32.6837 55.906 30.817C55.1593 26.1502 55.906 22.527 55.906 22.527C55.906 22.527 64.004 9.54495 74.6444 1.87589Z" fill="#283618"/>
<path d="M40.1773 21.4948C36.3604 22.4993 29.1285 22.4993 25.5126 21.8966C26.7015 23.0398 28.4861 25.1812 28.9276 26.9188C29.1362 30.9365 29.1208 29.3294 28.5259 32.3427C27.7887 34.5061 26.3606 35.3114 25.3117 36.3604C31.9409 35.356 34.9542 35.7578 40.1773 36.3604C36.0277 32.9889 35.7578 31.1374 35.5569 25.7134C37.9675 22.901 38.5702 23.3028 40.1773 21.4948Z" fill="#283618"/>
<path d="M73.9261 2.29317C75.6002 2.39362 77.0064 2.47732 78.1448 2.54428C79.3166 2.57776 80.2875 2.61125 81.0576 2.64472C81.9281 2.6782 82.6647 2.6782 83.2674 2.64472C83.87 2.61125 84.6903 2.52754 85.7282 2.39362C86.5987 2.29317 87.7538 2.14251 89.1935 1.94162C90.6667 1.70726 92.4914 1.40593 94.6676 1.03763C93.8976 1.8077 93.2949 2.5108 92.8597 3.14694C92.4579 3.7496 92.1398 4.26856 91.9055 4.70381C91.6376 5.23949 91.4535 5.69149 91.353 6.05979C91.2861 6.39459 91.353 7.23164 91.5539 8.57087C91.7548 9.9101 92.0394 11.5005 92.4077 13.3419C92.776 15.1499 93.1778 17.0918 93.613 19.1676C94.0482 21.21 94.4835 23.1351 94.9188 24.9431C95.354 26.7176 95.7391 28.241 96.0739 29.5133C96.4422 30.7521 96.71 31.4887 96.8774 31.723C97.3796 32.4261 97.6977 32.8949 97.8316 33.1292C97.9655 33.3301 98.1999 33.5142 98.5347 33.6817C98.6686 33.7486 98.8863 33.8491 99.1876 33.983C99.4555 34.1169 99.807 34.2843 100.242 34.4852C100.711 34.6861 101.297 34.9204 102 35.1883C100.694 35.2553 99.5726 35.3055 98.6352 35.339C97.6977 35.339 96.9276 35.3557 96.325 35.3892C95.6219 35.4227 95.0192 35.4562 94.517 35.4896C94.0148 35.4896 93.4121 35.5231 92.709 35.5901C92.1063 35.6571 91.3196 35.724 90.3486 35.791C89.4111 35.8579 88.3063 35.9249 87.034 35.9918C87.7036 35.5231 88.2393 35.1046 88.6411 34.7363C89.0763 34.3345 89.4111 33.9997 89.6455 33.7319C89.9134 33.3971 90.0975 33.0958 90.1979 32.8279C90.2649 32.5266 90.3151 32.0746 90.3486 31.4719C90.3821 30.9362 90.3821 30.2331 90.3486 29.3626C90.3151 28.4586 90.2314 27.2868 90.0975 25.8471L76.8892 27.2031C76.5544 27.7723 76.3033 28.2745 76.1359 28.7097C75.9685 29.1115 75.8513 29.463 75.7843 29.7644C75.6839 30.1327 75.6504 30.434 75.6839 30.6684C75.7509 30.9362 75.868 31.2543 76.0355 31.6226C76.2029 31.9574 76.4372 32.3591 76.7386 32.8279C77.0734 33.2631 77.5589 33.7821 78.195 34.3848C77.358 34.3513 76.5042 34.3345 75.6337 34.3345C74.7632 34.3345 73.9596 34.3513 73.223 34.3848C72.3525 34.4182 71.4988 34.4517 70.6617 34.4852C69.8247 34.5187 68.8705 34.5689 67.7991 34.6359C66.8951 34.7028 65.8405 34.7865 64.6352 34.887C63.3964 34.9539 62.0739 35.0544 60.6677 35.1883C61.5382 34.7865 62.2747 34.3848 62.8774 33.983C63.4801 33.5477 63.9823 33.146 64.384 32.7777C64.8528 32.3759 65.2546 31.9909 65.5894 31.6226C65.8237 31.2878 66.2925 30.5177 66.9956 29.3124C67.6987 28.0736 68.4855 26.6172 69.356 24.9431C70.26 23.269 71.1974 21.4778 72.1684 19.5694C73.1728 17.661 74.0768 15.8698 74.8804 14.1957C75.6839 12.4882 76.3368 11.015 76.839 9.77619C77.3412 8.5374 77.5923 7.73386 77.5923 7.36555C77.5253 6.93031 77.358 6.44481 77.0901 5.90913C76.8557 5.44038 76.4874 4.9047 75.9852 4.30204C75.5165 3.69938 74.8301 3.02976 73.9261 2.29317ZM82.5 21.7806C83 18.2806 83 17.2806 84 15.7806C83.5 17.7806 83.5 19.2806 83.5 23.2806C84.3035 21.6735 86.8973 20.6913 87.5 18.2806C87.9018 16.2718 87.5864 12.4212 87.3855 11.4837C87.2181 10.5128 86.8498 9.40788 86.582 8.06866C82.6839 9.44443 80.9691 10.6585 80.5 14.7806C80.1922 17.4855 80.7016 19.8998 82.5 21.7806Z" fill="#283618"/>
<path d="M29.3294 15.9467C28.7267 12.5317 29.3294 9.84342 29.3294 9.84342C29.3294 9.84342 33.0244 12.5052 33.9498 15.0665C34.8029 17.4275 34.5524 18.0798 33.9498 21.4948C32.7445 18.0798 32 16.7806 31.3383 15.6691C32 17.7806 32 18.2806 33 20.2806C31.5 18.7806 29.3294 17.3529 29.3294 15.9467Z" fill="#283618"/>
</svg>
